# xmcd CD database file
#
# Track frame offsets:
#	150
#	15687
#	27555
#	40955
#	53077
#	70340
#	83017
#	96107
#	108402
#	122712
#	131820
#	144235
#	157384
#	168634
#	180480
#	192122
#	204867
#	219880
#	232420
#	245795
#
# Disc length: 3475 seconds
#
# Revision: 2
# Processed by: cddbd v1.4b41PL1 Copyright (c) Steve Scherf et al.
# Submitted via: Feurio! 1.50.2ß - http://www.feurio.com
#
DISCID=230d9114
DTITLE=??? - Unknown CD #230D9114850A5215
DYEAR=1900
DGENRE=
TTITLE0=bij on in de jordaan
TTITLE1=aan de amsterdamse grachten
TTITLE2=aan de voet van de wester
TTITLE3=de glimlach van een kind
TTITLE4=het zal je kind maar wezen
TTITLE5=mijn wiegie was een stijfselkissie
TTITLE6=in de bus van bussum naar naarden
TTITLE7=de postkoets
TTITLE8=twee motte
TTITLE9=willem wordt wakker
TTITLE10=peter
TTITLE11=brandend zand
TTITLE12=spiegelbeeld
TTITLE13=brief uit la courtine
TTITLE14=janus pak me nog een keer
TTITLE15=ik heb mijn hart op katendrecht verloren
TTITLE16=de flipstand
TTITLE17=karel
TTITLE18=vlammetjes
TTITLE19=ik doe wat ik doe
EXTD=
EXTT0=
EXTT1=
EXTT2=
EXTT3=
EXTT4=
EXTT5=
EXTT6=
EXTT7=
EXTT8=
EXTT9=
EXTT10=
EXTT11=
EXTT12=
EXTT13=
EXTT14=
EXTT15=
EXTT16=
EXTT17=
EXTT18=
EXTT19=
PLAYORDER=
